<svg version="1.1" xmlns="http://www.w3.org/2000/svg" xmlns:xlink="http://www.w3.org/1999/xlink" x="0px" y="0px" viewBox="0 0 1000 1000" enable-background="new 0 0 1000 1000" xml:space="preserve" fill="currentColor">
<g><g transform="translate(0.000000,511.000000) scale(0.100000,-0.100000)"><path d="M6074.9,4974.9c-489.4-101.3-916.4-329.9-1263.5-679.2c-1078.1-1075.9-922.9-2854.8,323.4-3734.6c125.1-86.3,129.4-92.7,81.9-112.1C4393,114.8,3683.6-551.5,3388.2-1269.5l-62.5-148.8h332.1H3992l45.3,90.6c148.8,295.4,504.6,683.5,817.2,894.8c649,435.6,1472.7,625.3,2156.2,493.8C8131.9-154.7,8968.5-862,9238-1823.7c43.1-157.4,45.3-217.8,53.9-1259.2l6.5-1095.4h-2760H3776.3v150.9v150.9h-301.9h-301.9v-222.1c0-207,4.3-232.9,66.8-360.1c71.1-138,185.4-241.5,327.7-295.4c51.8-17.2,804.3-25.9,2960.5-25.9c3266.7-2.1,3016.5-15.1,3199.8,170.4C9902.1-4437,9900-4458.6,9900-3175.6c0,1216.1-6.5,1315.3-118.6,1660.3c-79.8,248-245.8,575.7-398.9,791.3C9056.9-269,8524.3,160,7998.2,386.4c-99.2,41-181.1,79.8-185.4,81.9c-2.2,2.2,49.6,41,116.4,86.3c299.7,198.4,659.8,616.7,817.2,950.9c196.2,416.1,278.2,888.3,228.5,1323.9c-120.7,1019.9-838.8,1850-1834.9,2113.1C6905,5005.1,6309.9,5022.3,6074.9,4974.9z M6898.5,4369c584.3-120.8,1076-513.2,1323.9-1058.7c114.3-254.4,153.1-474.4,140.1-815c-10.8-349.3-49.6-495.9-202.7-787c-179-342.8-446.3-603.7-793.5-778.4c-304-150.9-495.9-196.2-830.1-196.2c-204.8,0-310.5,10.8-442,45.3c-621,163.9-1110.4,625.3-1306.7,1231.2c-56.1,168.2-69,252.3-77.6,463.6c-23.7,558.5,146.6,1002.6,532.6,1390.8c258.7,256.6,575.7,431.2,916.4,504.6C6361.7,4409.9,6693.7,4412.1,6898.5,4369z"/><path d="M1788.3-508.4l-146.6-6.5l-4.3-759l-6.5-759l-759-6.5l-761.1-4.3l-2.2-146.6c0-79.8-4.3-351.5-4.3-601.6l-4.3-459.3l765.5-4.3l765.5-6.5l6.5-759l4.3-761.1h603.7h603.7l4.3,761.1l6.5,759l761.1,6.5l759,4.3v603.7v603.7l-759,4.3l-761.1,6.5l-6.5,765.5l-4.3,765.5h-459.3C2139.8-501.9,1868.1-504.1,1788.3-508.4z"/></g></g>
</svg>